<svg xmlns="http://www.w3.org/2000/svg" viewBox="0 0 276 295">
    <path d="M116.4 95.973c3.7-5.1 8.7-7.2 12.2-8.6 5.3-2.1 8.7-5.1 7.8-3-3.1 7.4 2.6 2.7 2.4 14.2-.072 4.729-1.375 7.603-2.55 9.224-2.842.389-6.33 1.124-10.45 2.476a54.554 54.554 0 0 0-6.651 2.64 15.72 15.72 0 0 1-1.649-1.24c-5.5-4.8-4.5-11-1.1-15.7zm57.657-18.897c-.077.952.51 1.24 2.043 2.696 1.7 1.7-.1 1.1-.5 2s-.9 3.4-.2 6.6a5.7 5.7 0 0 0 .156.546c.12.273.265.584.444.954 1.699 3.545 3.62 6.867 6.802 8.565a22.16 22.16 0 0 1 2.498-.265c3.044-.15 4.944.335 6.13 1 .114-.6.139-1.483.07-2.8 0-.5.8-11.7-6.3-14.4-5.928-2.257-9.623-4.992-11.143-4.896zM275.8 260.973l-145.4 17.5-3.1-22.5-8.864 1.286c.798 12.574-2.187 24.494-7.736 30.214-6.5 6.7-15.9 8.4-25.9 7-6.938-.944-12.037-6.117-15.764-12.324.056.042.106.082.164.124a31.42 31.42 0 0 0 2.854 1.842c13.328 7.629 28.744 3.205 34.246-4.442 8.2-11.4 6.1-22.2 3.1-32.3-2.5-8-9-21.1-17-26.2-8.178-5.162-16.118-6.161-22.845-5.477l.914-1.048c9.563-1.813 19.496-.72 26.731 3.924 8.3 5.4 16 14.6 20 28.6 4.5-.6 5.2-.9 9.3-1.5l-9.3-72.6 19.7-2.2c-9.3-5.9-16.3-14-23-12.4-.7-.5-.2-2.1-.2-2.1 6.3-3.4 19 6.6 35.6 11.7 5.8 1.8 14.8 2.5 22.6-1.9 5.9-3.4 13.1-9.3 17.4-15.3l.8 1.4c0 .9-2 5.3-3 7 1.8 1 3.2 1.3 5.2 1.9l13.7-2.1c4.9-8 8.5-20.8 4.7-33-2.2-7-13.3-20.9-14.1-21.7-2.8-2.7.5-13.1-5.1-24.5-5.9-12-21.2-24.6-27.9-30.1 2 1.4 14.1 6.3 19.7 13.1.5-.7 4.6-3 5-4-1.7-5.5-1.6-9.3-1.6-12.3 0-5.5-2.8-11.8-2.8-11.8s4.9 3.8 6.1 10.4c1.5 7.8 4.6 14 8.8 19.2 7.9 9.8 15 14.9 18.6 11.2 4.3-4.4-4.4-23.9-15.5-34.8-12.9-12.3-16.3-10.6-23.9-7.9-6.1 2.2-16.8 9.7-32.6 9.3-2.7-.3-9.6-.5-13-.5 1.8-2.5 3.3-4.4 3.3-4.4s-5.3 2.1-9.8 4.8l-.4-.5c1.5-3.2 3.2-5.2 3.2-5.2s-4.2 2.5-8.1 5.6c.7-3.8 3.4-6.3 3.4-6.3s-5.3 1-12.2 8.5c-7.7 2.1-9.6 3.5-15.8 6.2-8 2.3-19 3.8-22 .2-7.6-9.1-11.8-8.2-17.4-4.4-8.5 5.7-19 10.2-19 10.2s3.7-.1 7.7 0c-5.4 2-10.5 4.8-10.5 4.8s2.5-.1 5.6 0c-2.1 1.8-3.3 2.6-5.4 4-4.9 3.6-8.9 7.7-8.9 7.7s3.3-1.5 6.3-2.4c-2.1 4.8-6.2 8.3-5.5 14.2.7 5.4 7.3 16.4 15.8 23.1.7.6 12.3 11.3 21 6.9s12.2-8.3 13.6-14.3c1.7-6.9 2.3-13.9-3.6-28.1-2.156-5.031-4.26-14.038-5.274-18.708l.416-.31c2.353 6.027 8.262 21 13.258 32.318 5.2 11.9-.3 25-2.4 28.1-6.3 9.3-15.1 12.4-22.5 7.2.3 8.3 1.6 11.6 3 15.6-.7 4.6 2.3 13 2.3 13s.3-3.9 1.7-5.9c.4 4.5 2.6 9.9 2.6 9.9s-.1-3.3.9-6.2c1.5 2.5 2.5 3.1 3.9 4.9 1.4 4.8 4.2 8.4 4.2 8.4s-.5-2.6-.2-5.3c6.8 6.5 7.9 16 8.6 23.3 1.981 20.998-34.784 37.483-38.885 50.233-4.357 7.451-6.476 18.25 1.385 24.767 6.144 5.11 9.691 9.087 11.947 12.359L30.1 270.073l-29.9-242 242.1-28 14.2 146.7 7.4-1.4 11.9 115.6zm-140.1 10.1l128.3-23.1-7.5-92.5-74.9 13.6c-1.9 2.4-6.4 6.6-8.7 7.7-9.5 4.8-15.9 3.4-21.4 1.9-3.6-.9-5.6-1.4-8.6-2.7l-18.3 2.5 11.1 92.6zm63.5-88.9l-10.9 1.6 4 42.9 10.9-1.6-4-42.9zm-6.5 49.5l.9 9.9 10.9-1.6-.9-9.9-10.9 1.6zm-19.6-101.4c1.7-1.3 9.3-3.8 16.3-4.6 3.7-.5 9-.7 10.1-.1 2.2 1.3 2.2 5.1.7 8.6-2.2 5.1-5.3 10.7-8.9 11.2-5.8.7-11.3-2.4-17.6-7.1-2.2-1.6-3.6-5.7-.6-8z" fill="#1c2b34" opacity="0.98"/>
</svg>
